<?xml version="1.0" ?><svg viewBox="0 0 256 256" xmlns="http://www.w3.org/2000/svg"><path d="m131 151.43c-1 1.43-109.5 1-111 0s-1.75-61.43 0-62.87 110.25-1.67 111 0 1 61.44 0 62.87z" fill="#191919"/><path d="m83.63 160.33h-8c-13.8 0-27.64-.14-38-.29-19.56-.29-19.74-.41-22-1.85-3.82-2.42-4.05-6.34-4.35-11.3-.43-7.27-.66-21.15-.56-34.53 0-6.69.18-12.46.37-16.69.34-7.36.62-10.73 3.77-13.3 2.69-2.19 3.5-2.86 58.61-3 19.91 0 54 .07 59 1.24a8.19 8.19 0 0 1 5.77 4.64c.78 1.73 1.3 2.88 1.36 34.79.07 32.85-.39 33.51-2.1 35.95-2.45 3.51-5.76 3.64-11.23 3.86-3 .12-7.31.22-12.77.29-7.89.13-18.32.19-29.87.19zm-56.43-16.5c19.08.51 77 .78 96.29.17.28-11.65.18-36.48-.1-48.11-19.19-.72-77.32-.68-96.23.08-.51 11.2-.49 36.29.03 47.86z" fill="#191919"/><path d="m237.1 151.43c-1.35 1.19-61.6 1.19-62.6 0s-1.25-61.92 0-62.87 62.21-1 62.6 0 1.36 61.68 0 62.87z" fill="#191919"/><path d="m205.71 160.32c-11.61 0-24.22-.17-29.58-.57-2.29-.17-5.43-.41-7.75-3.17-2.12-2.53-2.56-3.05-2.71-33.15 0-4.64-.1-28.09.62-34.57a9.13 9.13 0 0 1 3.36-6.66c2.52-1.92 3-2.33 35.3-2.35 30.6 0 33.13.66 34.09.92a8.12 8.12 0 0 1 5.45 4.72c.62 1.48 1 2.46 1.27 34.36.24 30.48.27 34.39-3.37 37.59-2.53 2.23-3.13 2.75-31.75 2.88zm-23.71-16.32c11.51.39 36.24.38 47.72 0 .27-11.31 0-35.91-.25-48-11.69-.3-36-.29-47.52 0-.38 11.56-.35 36.42.05 48z" fill="#191919"/><path d="m131 151.43c-1 1.43-109.5 1-111 0s-1.75-61.43 0-62.87 110.25-1.67 111 0 1 61.44 0 62.87z" fill="#fff"/><path d="m237.1 151.43c-1.35 1.19-61.6 1.19-62.6 0s-1.25-61.92 0-62.87 62.21-1 62.6 0 1.36 61.68 0 62.87z" fill="#fff"/><path d="m70.9 140.22c-.39.92-42.17.61-42.75 0s-.67-39.63 0-40.56 42.46-1.08 42.75 0 .39 39.64 0 40.56z" fill="#191919"/><path d="m122 140.22c-.39.92-42.17.61-42.75 0s-.67-39.63 0-40.56 42.46-1.08 42.75 0 .38 39.64 0 40.56z" fill="#191919"/><path d="m227.49 140.22c-1 .77-42.67.77-43.42 0s-.94-39.94 0-40.56 43.12-.61 43.42 0 1.02 39.8 0 40.56z" fill="#191919"/><g><path d="m166.92 46.47c-1.32-2.07-28.29-1.47-29.92-.25s12.73 23.87 15.28 23.9 15.96-21.58 14.64-23.65z" fill="#e83a2a"/></g><g><path d="m166.91 209.76c-1.32 2.07-28.29 1.45-29.88.26s12.73-23.87 15.28-23.9 15.92 21.57 14.6 23.64z" fill="#e83a2a"/></g><path d="m157 83.63c-.12-4.25-9.12-4.75-9.25-.37-.06 2 0 88.12 0 90.87 0 5 8 5.25 8.5.63.36-3.26.85-88 .75-91.13z" fill="#e83a2a"/><path d="m135.5 177.83c4.25-.12 4.46-8.53.08-8.65-2-.06-115.12 0-117.87 0-5 0-5.25 8-.62 8.5 3.25.32 115.29.25 118.41.15z" fill="#191919"/><path d="m242.67 177.33c4.25-.12 4.29-8-.08-8.15-2-.06-70.12 0-72.87 0-5 0-5.25 8-.62 8.5 3.24.32 70.44-.25 73.57-.35z" fill="#191919"/></svg>