<?xml version="1.0" encoding="utf-8"?>
<!-- Generator: Adobe Illustrator 25.4.1, SVG Export Plug-In . SVG Version: 6.00 Build 0)  -->
<svg version="1.1" id="Layer_1" xmlns="http://www.w3.org/2000/svg" xmlns:xlink="http://www.w3.org/1999/xlink" x="0px" y="0px"
	 viewBox="0 0 1000 500" enable-background="new 0 0 1000 500" xml:space="preserve">
<g>
	<path fill="#010101" d="M303.11,20.53c-1.63,0-2.9,0.67-3.81,2.01c-0.91,1.34-1.37,3.18-1.37,5.54c0,4.89,1.85,7.34,5.56,7.34
		c1.12,0,2.2-0.16,3.25-0.47c1.05-0.31,2.11-0.69,3.17-1.13v5.81c-2.11,0.94-4.5,1.41-7.17,1.41c-3.82,0-6.75-1.11-8.79-3.34
		c-2.04-2.22-3.06-5.44-3.06-9.65c0-2.63,0.49-4.94,1.48-6.94c0.99-1.99,2.41-3.53,4.26-4.6c1.85-1.07,4.03-1.61,6.54-1.61
		c2.74,0,5.35,0.6,7.84,1.79l-2.09,5.41c-0.93-0.44-1.87-0.81-2.8-1.11C305.19,20.68,304.18,20.53,303.11,20.53z"/>
	<path fill="#010101" d="M330.38,40.68l-1.25-4.76h-8.22l-1.28,4.76h-7.51l8.26-25.52h9.12l8.36,25.52H330.38z M327.71,30.28
		l-1.09-4.17c-0.25-0.93-0.56-2.13-0.93-3.6c-0.36-1.47-0.6-2.53-0.72-3.16c-0.1,0.59-0.31,1.56-0.61,2.92
		c-0.31,1.36-0.98,4.03-2.03,8.01H327.71z"/>
	<path fill="#010101" d="M364.69,40.68h-8.97l-9.24-17.9h-0.16c0.22,2.82,0.33,4.97,0.33,6.45v11.45h-6.06V15.27h8.93l9.21,17.66
		h0.1c-0.16-2.56-0.24-4.62-0.24-6.17V15.27h6.09V40.68z"/>
	<path fill="#010101" d="M385.69,40.68l-1.25-4.76h-8.22l-1.28,4.76h-7.51l8.26-25.52h9.12l8.36,25.52H385.69z M383.02,30.28
		l-1.09-4.17c-0.25-0.93-0.56-2.13-0.93-3.6c-0.36-1.47-0.6-2.53-0.72-3.16c-0.1,0.59-0.31,1.56-0.61,2.92
		c-0.31,1.36-0.98,4.03-2.03,8.01H383.02z"/>
	<path fill="#010101" d="M417.38,27.43c0,4.24-1.16,7.51-3.49,9.8s-5.59,3.44-9.81,3.44h-8.19V15.27h8.76c4.06,0,7.2,1.04,9.41,3.13
		C416.28,20.48,417.38,23.49,417.38,27.43z M410.29,27.68c0-2.33-0.46-4.06-1.38-5.18c-0.92-1.12-2.31-1.69-4.18-1.69h-1.99v14.24
		h1.52c2.08,0,3.6-0.61,4.57-1.82C409.8,32.02,410.29,30.17,410.29,27.68z"/>
	<path fill="#010101" d="M437.45,40.68l-1.25-4.76h-8.22l-1.28,4.76h-7.51l8.26-25.52h9.12l8.36,25.52H437.45z M434.78,30.28
		l-1.09-4.17c-0.25-0.93-0.56-2.13-0.93-3.6c-0.36-1.47-0.6-2.53-0.72-3.16c-0.1,0.59-0.31,1.56-0.61,2.92
		c-0.31,1.36-0.98,4.03-2.03,8.01H434.78z"/>
	<path fill="#010101" d="M453.55,35.48l0.24,0.4c-1.12,4.42-2.13,7.67-3.05,9.75h-4.83c0.33-1.6,0.67-3.39,1.01-5.38
		c0.34-1.99,0.57-3.58,0.7-4.77H453.55z"/>
	<path fill="#010101" d="M478.86,40.68l-5.18-18.3h-0.16c0.24,3.12,0.36,5.54,0.36,7.27v11.04h-6.06V15.27h9.11l5.28,18.04h0.14
		l5.18-18.04h9.12v25.41h-6.28V29.54c0-0.58,0.01-1.22,0.03-1.93c0.02-0.71,0.09-2.44,0.23-5.2h-0.16l-5.11,18.27H478.86z"/>
	<path fill="#010101" d="M502.11,40.68V15.27h6.87v25.41H502.11z"/>
	<path fill="#010101" d="M531,32.96c0,1.58-0.4,2.98-1.19,4.2c-0.8,1.22-1.95,2.17-3.45,2.85c-1.5,0.68-3.26,1.02-5.28,1.02
		c-1.68,0-3.1-0.12-4.24-0.36c-1.14-0.24-2.33-0.65-3.57-1.24v-6.12c1.3,0.67,2.66,1.2,4.07,1.57c1.41,0.38,2.7,0.56,3.88,0.56
		c1.02,0,1.76-0.18,2.23-0.53c0.47-0.35,0.71-0.81,0.71-1.36c0-0.35-0.1-0.65-0.29-0.91c-0.19-0.26-0.5-0.52-0.92-0.79
		c-0.42-0.27-1.54-0.81-3.37-1.63c-1.65-0.75-2.89-1.48-3.71-2.19c-0.83-0.71-1.44-1.52-1.84-2.43c-0.4-0.92-0.6-2-0.6-3.25
		c0-2.34,0.85-4.17,2.54-5.48c1.7-1.31,4.03-1.96,6.99-1.96c2.62,0,5.29,0.61,8.02,1.83l-2.09,5.3c-2.37-1.09-4.41-1.63-6.13-1.63
		c-0.89,0-1.53,0.16-1.94,0.47s-0.61,0.7-0.61,1.16c0,0.5,0.26,0.94,0.77,1.34c0.51,0.39,1.91,1.11,4.18,2.16
		c2.18,0.99,3.7,2.04,4.54,3.17C530.57,29.82,531,31.25,531,32.96z"/>
	<path fill="#010101" d="M551.46,32.96c0,1.58-0.4,2.98-1.19,4.2c-0.8,1.22-1.95,2.17-3.45,2.85c-1.5,0.68-3.26,1.02-5.28,1.02
		c-1.68,0-3.1-0.12-4.24-0.36s-2.33-0.65-3.57-1.24v-6.12c1.3,0.67,2.66,1.2,4.07,1.57c1.41,0.38,2.7,0.56,3.88,0.56
		c1.02,0,1.76-0.18,2.23-0.53c0.47-0.35,0.71-0.81,0.71-1.36c0-0.35-0.1-0.65-0.29-0.91c-0.19-0.26-0.5-0.52-0.92-0.79
		c-0.42-0.27-1.54-0.81-3.37-1.63c-1.65-0.75-2.89-1.48-3.71-2.19c-0.83-0.71-1.44-1.52-1.84-2.43c-0.4-0.92-0.6-2-0.6-3.25
		c0-2.34,0.85-4.17,2.54-5.48c1.7-1.31,4.03-1.96,6.99-1.96c2.62,0,5.29,0.61,8.02,1.83l-2.09,5.3c-2.37-1.09-4.41-1.63-6.13-1.63
		c-0.89,0-1.53,0.16-1.94,0.47c-0.4,0.31-0.61,0.7-0.61,1.16c0,0.5,0.26,0.94,0.77,1.34c0.51,0.39,1.91,1.11,4.18,2.16
		c2.18,0.99,3.7,2.04,4.54,3.17C551.04,29.82,551.46,31.25,551.46,32.96z"/>
	<path fill="#010101" d="M555.37,40.68V15.27h6.87v25.41H555.37z"/>
	<path fill="#010101" d="M584.27,32.96c0,1.58-0.4,2.98-1.19,4.2c-0.8,1.22-1.95,2.17-3.45,2.85c-1.5,0.68-3.26,1.02-5.28,1.02
		c-1.68,0-3.1-0.12-4.24-0.36c-1.14-0.24-2.33-0.65-3.57-1.24v-6.12c1.3,0.67,2.66,1.2,4.07,1.57c1.41,0.38,2.7,0.56,3.88,0.56
		c1.02,0,1.76-0.18,2.23-0.53c0.47-0.35,0.71-0.81,0.71-1.36c0-0.35-0.1-0.65-0.29-0.91c-0.19-0.26-0.5-0.52-0.92-0.79
		c-0.42-0.27-1.54-0.81-3.37-1.63c-1.65-0.75-2.89-1.48-3.71-2.19c-0.83-0.71-1.44-1.52-1.83-2.43c-0.4-0.92-0.6-2-0.6-3.25
		c0-2.34,0.85-4.17,2.54-5.48c1.7-1.31,4.03-1.96,6.99-1.96c2.62,0,5.29,0.61,8.02,1.83l-2.09,5.3c-2.37-1.09-4.41-1.63-6.13-1.63
		c-0.89,0-1.53,0.16-1.94,0.47s-0.61,0.7-0.61,1.16c0,0.5,0.26,0.94,0.77,1.34c0.51,0.39,1.91,1.11,4.18,2.16
		c2.18,0.99,3.7,2.04,4.54,3.17C583.84,29.82,584.27,31.25,584.27,32.96z"/>
	<path fill="#010101" d="M604.73,32.96c0,1.58-0.4,2.98-1.19,4.2c-0.8,1.22-1.95,2.17-3.45,2.85c-1.5,0.68-3.26,1.02-5.28,1.02
		c-1.68,0-3.1-0.12-4.24-0.36c-1.14-0.24-2.33-0.65-3.57-1.24v-6.12c1.3,0.67,2.66,1.2,4.07,1.57c1.41,0.38,2.7,0.56,3.88,0.56
		c1.02,0,1.76-0.18,2.23-0.53c0.47-0.35,0.71-0.81,0.71-1.36c0-0.35-0.1-0.65-0.29-0.91c-0.19-0.26-0.5-0.52-0.92-0.79
		c-0.42-0.27-1.54-0.81-3.37-1.63c-1.65-0.75-2.89-1.48-3.71-2.19c-0.83-0.71-1.44-1.52-1.83-2.43c-0.4-0.92-0.6-2-0.6-3.25
		c0-2.34,0.85-4.17,2.54-5.48c1.7-1.31,4.03-1.96,6.99-1.96c2.62,0,5.29,0.61,8.02,1.83l-2.09,5.3c-2.37-1.09-4.41-1.63-6.13-1.63
		c-0.89,0-1.53,0.16-1.94,0.47s-0.61,0.7-0.61,1.16c0,0.5,0.26,0.94,0.77,1.34c0.51,0.39,1.91,1.11,4.18,2.16
		c2.18,0.99,3.7,2.04,4.54,3.17C604.3,29.82,604.73,31.25,604.73,32.96z"/>
	<path fill="#010101" d="M624.17,40.68l-1.25-4.76h-8.22l-1.28,4.76h-7.51l8.26-25.52h9.12l8.36,25.52H624.17z M621.5,30.28
		l-1.09-4.17c-0.25-0.93-0.56-2.13-0.93-3.6c-0.36-1.47-0.6-2.53-0.72-3.16c-0.1,0.59-0.31,1.56-0.61,2.92
		c-0.31,1.36-0.98,4.03-2.03,8.01H621.5z"/>
	<path fill="#010101" d="M655.9,15.27v15.3c0,3.33-0.94,5.9-2.81,7.73c-1.88,1.83-4.58,2.74-8.11,2.74c-3.45,0-6.1-0.89-7.95-2.66
		c-1.85-1.77-2.78-4.32-2.78-7.65V15.27h6.87v14.91c0,1.8,0.33,3.1,1,3.91c0.67,0.81,1.66,1.22,2.96,1.22c1.4,0,2.41-0.4,3.04-1.21
		c0.63-0.81,0.94-2.12,0.94-3.95V15.27H655.9z"/>
	<path fill="#010101" d="M671.38,25.8h10.92v13.7c-2.97,1.02-6.23,1.53-9.78,1.53c-3.9,0-6.92-1.14-9.05-3.41
		c-2.13-2.27-3.19-5.51-3.19-9.72c0-4.1,1.17-7.29,3.5-9.58c2.33-2.28,5.6-3.42,9.8-3.42c1.59,0,3.1,0.15,4.51,0.45
		c1.41,0.3,2.65,0.68,3.7,1.15l-2.16,5.39c-1.82-0.9-3.83-1.36-6.01-1.36c-2,0-3.54,0.65-4.63,1.96c-1.09,1.3-1.64,3.17-1.64,5.59
		c0,2.38,0.49,4.19,1.48,5.43c0.99,1.25,2.41,1.87,4.27,1.87c1.02,0,1.95-0.1,2.8-0.3V31.1h-4.52V25.8z"/>
	<path fill="#010101" d="M702.99,40.68l-1.25-4.76h-8.22l-1.28,4.76h-7.51l8.26-25.52h9.12l8.36,25.52H702.99z M700.32,30.28
		l-1.09-4.17c-0.25-0.93-0.56-2.13-0.93-3.6c-0.36-1.47-0.6-2.53-0.72-3.16c-0.1,0.59-0.31,1.56-0.61,2.92
		c-0.31,1.36-0.98,4.03-2.03,8.01H700.32z"/>
</g>
<line fill="none" stroke="#3D3C45" stroke-width="3" stroke-miterlimit="10" x1="281.55" y1="49.71" x2="718.02" y2="49.71"/>
<rect x="0" y="366.64" fill="#3A9946" stroke="#3D3C45" stroke-width="3" stroke-miterlimit="10" width="1000" height="58.08"/>
<g>
	<path fill="#6FCEEE" stroke="#3D3C45" stroke-width="3" stroke-miterlimit="10" d="M1000,416.29c-4.62,0.9-10-1.79-10-8.08
		c0,11-16.5,11-16.5,0c0,11-16.5,11-16.5,0c0,11-16.5,11-16.5,0c0,11-16.5,11-16.5,0c0,11-16.5,11-16.5,0c0,11-16.5,11-16.5,0
		c0,11-16.5,11-16.5,0c0,11-16.5,11-16.5,0c0,11-16.5,11-16.5,0c0,11-16.5,11-16.5,0c0,11-16.5,11-16.5,0c0,11-16.5,11-16.5,0
		c0,11-16.5,11-16.5,0c0,11-16.5,11-16.5,0c0,11-16.5,11-16.5,0c0,11-16.5,11-16.5,0c0,11-16.5,11-16.5,0c0,11-16.5,11-16.5,0
		c0,11-16.5,11-16.5,0c0,11-16.5,11-16.5,0c0,11-16.5,11-16.5,0c0,11-16.5,11-16.5,0c0,11-16.5,11-16.5,0c0,11-16.5,11-16.5,0
		c0,11-16.5,11-16.5,0c0,11-16.5,11-16.5,0c0,11-16.5,11-16.5,0c0,11-16.5,11-16.5,0c0,11-16.5,11-16.5,0c0,11-16.5,11-16.5,0
		c0,11-16.5,11-16.5,0c0,11-16.5,11-16.5,0c0,11-16.5,11-16.5,0c0,11-16.5,11-16.5,0c0,11-16.5,11-16.5,0c0,11-16.5,11-16.5,0
		c0,11-16.5,11-16.5,0c0,11-16.5,11-16.5,0c0,11-16.5,11-16.5,0c0,11-16.5,11-16.5,0c0,11-16.5,11-16.5,0c0,11-16.5,11-16.5,0
		c0,11-16.5,11-16.5,0c0,11-16.5,11-16.5,0c0,11-16.5,11-16.5,0c0,11-16.5,11-16.5,0c0,11-16.5,11-16.5,0c0,11-16.5,11-16.5,0
		c0,11-16.5,11-16.5,0c0,11-16.5,11-16.5,0c0,11-16.5,11-16.5,0c0,11-16.5,11-16.5,0c0,11-16.5,11-16.5,0c0,11-16.5,11-16.5,0
		c0,11-16.5,11-16.5,0c0,11-16.5,11-16.5,0c0,11-16.5,11-16.5,0c0,11-16.5,11-16.5,0c0,11-16.5,11-16.5,0c0,11-16.5,11-16.5,0v16.5
		h379.5H759h241V416.29z"/>
</g>
<g>
	<path fill="#FFFFFF" stroke="#3D3C45" stroke-width="3" stroke-miterlimit="10" d="M664.88,90.3c1.14,0,2.06-0.92,2.06-2.06l0-0.02
		c0-3.16-2.31-5.88-5.63-7.08c0.33-0.82,0.52-1.7,0.52-2.61c0-4.52-4.42-8.18-9.87-8.18c-4.61,0-8.48,2.63-9.56,6.17
		c-0.1,0-0.21-0.01-0.31-0.01c-6.52,0-11.81,4.1-11.81,9.17c0,0.02,0,0.03,0,0.05c0.02,2.58,2.28,4.58,4.86,4.58H664.88z"/>
	<line fill="#FFFFFF" stroke="#3D3C45" stroke-width="3" stroke-miterlimit="10" x1="622.54" y1="95.46" x2="641.82" y2="95.46"/>
</g>
<g>
	<path fill="#FFFFFF" stroke="#3D3C45" stroke-width="3" stroke-miterlimit="10" d="M195.34,51.79c1.14,0,2.06-0.92,2.06-2.06v-0.02
		c0-3.16-2.31-5.88-5.63-7.08c0.33-0.82,0.52-1.7,0.52-2.61c0-4.52-4.42-8.18-9.87-8.18c-4.61,0-8.48,2.63-9.56,6.17
		c-0.1,0-0.21-0.01-0.31-0.01c-6.52,0-11.81,4.1-11.81,9.17c0,0.02,0,0.03,0,0.05c0.02,2.58,2.28,4.58,4.86,4.58H195.34z"/>
	<line fill="#FFFFFF" stroke="#3D3C45" stroke-width="3" stroke-miterlimit="10" x1="153" y1="56.95" x2="172.28" y2="56.95"/>
</g>
<g>
	<path fill="#FFFFFF" stroke="#3D3C45" stroke-width="3" stroke-miterlimit="10" d="M534.39,101.64c1.14,0,2.06-0.92,2.06-2.06
		l0-0.02c0-3.16-2.31-5.88-5.63-7.08c0.33-0.82,0.52-1.7,0.52-2.61c0-4.52-4.42-8.18-9.87-8.18c-4.61,0-8.48,2.63-9.56,6.17
		c-0.1,0-0.21-0.01-0.31-0.01c-6.52,0-11.81,4.1-11.81,9.17c0,0.02,0,0.03,0,0.05c0.02,2.58,2.28,4.58,4.86,4.58H534.39z"/>
	<line fill="#FFFFFF" stroke="#3D3C45" stroke-width="3" stroke-miterlimit="10" x1="492.05" y1="106.8" x2="511.33" y2="106.8"/>
</g>
<g>
	<path fill="#FFFFFF" stroke="#3D3C45" stroke-width="3" stroke-miterlimit="10" d="M834.41,121.15c1.14,0,2.06-0.92,2.06-2.06
		v-0.02c0-3.16-2.31-5.88-5.63-7.08c0.33-0.82,0.52-1.7,0.52-2.61c0-4.52-4.42-8.18-9.87-8.18c-4.61,0-8.48,2.63-9.56,6.17
		c-0.1,0-0.21-0.01-0.31-0.01c-6.52,0-11.81,4.1-11.81,9.17c0,0.02,0,0.03,0,0.05c0.02,2.58,2.28,4.58,4.86,4.58H834.41z"/>
	<line fill="#FFFFFF" stroke="#3D3C45" stroke-width="3" stroke-miterlimit="10" x1="792.07" y1="126.31" x2="811.35" y2="126.31"/>
</g>
<g>
	<g>
		<path fill="#F15922" stroke="#3D3C45" stroke-width="3" stroke-miterlimit="10" d="M69.45,134.73c-3.98,0-7.21,3.23-7.21,7.21
			v15.94h14.42v-15.94C76.66,137.95,73.43,134.73,69.45,134.73z"/>
		<g>
			<polygon fill="#4D7DBF" stroke="#3D3C45" stroke-width="3" stroke-miterlimit="10" points="86.81,156.14 52.09,156.14 
				36.32,189.7 102.58,189.7 			"/>
			<polyline fill="#3968B2" stroke="#3D3C45" stroke-width="3" stroke-miterlimit="10" points="69.45,189.7 102.58,189.7 
				86.81,156.14 69.45,156.14 			"/>
		</g>
		
			<ellipse transform="matrix(0.7071 -0.7071 0.7071 0.7071 -116.051 105.6021)" fill="#6FCEEE" stroke="#3D3C45" stroke-width="3" stroke-miterlimit="10" cx="69.45" cy="192.89" rx="17.07" ry="17.07"/>
		
			<rect x="26.33" y="209.96" fill="#B2AF9E" stroke="#3D3C45" stroke-width="3" stroke-miterlimit="10" width="86.23" height="156.25"/>
		
			<rect x="35.01" y="218.64" fill="#6FCEEE" stroke="#3D3C45" stroke-width="3" stroke-miterlimit="10" width="68.87" height="111.69"/>
		<line fill="none" stroke="#3D3C45" stroke-width="3" stroke-miterlimit="10" x1="35.01" y1="228.83" x2="103.88" y2="228.83"/>
		<line fill="none" stroke="#3D3C45" stroke-width="3" stroke-miterlimit="10" x1="35.01" y1="237.74" x2="103.88" y2="237.74"/>
		<line fill="none" stroke="#3D3C45" stroke-width="3" stroke-miterlimit="10" x1="35.01" y1="246.65" x2="103.88" y2="246.65"/>
		<line fill="none" stroke="#3D3C45" stroke-width="3" stroke-miterlimit="10" x1="35.01" y1="255.56" x2="103.88" y2="255.56"/>
		<line fill="none" stroke="#3D3C45" stroke-width="3" stroke-miterlimit="10" x1="35.01" y1="264.47" x2="103.88" y2="264.47"/>
		<line fill="none" stroke="#3D3C45" stroke-width="3" stroke-miterlimit="10" x1="35.01" y1="273.38" x2="103.88" y2="273.38"/>
		<line fill="none" stroke="#3D3C45" stroke-width="3" stroke-miterlimit="10" x1="35.01" y1="282.29" x2="103.88" y2="282.29"/>
		<line fill="none" stroke="#3D3C45" stroke-width="3" stroke-miterlimit="10" x1="35.01" y1="291.21" x2="103.88" y2="291.21"/>
		<line fill="none" stroke="#3D3C45" stroke-width="3" stroke-miterlimit="10" x1="35.01" y1="300.12" x2="103.88" y2="300.12"/>
		<line fill="none" stroke="#3D3C45" stroke-width="3" stroke-miterlimit="10" x1="35.01" y1="309.03" x2="103.88" y2="309.03"/>
		<line fill="none" stroke="#3D3C45" stroke-width="3" stroke-miterlimit="10" x1="35.01" y1="317.94" x2="103.88" y2="317.94"/>
		<g>
			<line fill="none" stroke="#3D3C45" stroke-width="3" stroke-miterlimit="10" x1="57.01" y1="218.64" x2="57.01" y2="329.75"/>
			<line fill="none" stroke="#3D3C45" stroke-width="3" stroke-miterlimit="10" x1="81.89" y1="218.64" x2="81.89" y2="329.75"/>
		</g>
		
			<rect x="32.12" y="189.7" fill="#6FCEEE" stroke="#3D3C45" stroke-width="3" stroke-miterlimit="10" width="74.65" height="20.25"/>
		<g>
			<line fill="none" stroke="#3D3C45" stroke-width="3" stroke-miterlimit="10" x1="47.46" y1="197.53" x2="47.46" y2="203.29"/>
			<line fill="none" stroke="#3D3C45" stroke-width="3" stroke-miterlimit="10" x1="58.45" y1="197.53" x2="58.45" y2="203.29"/>
			<line fill="none" stroke="#3D3C45" stroke-width="3" stroke-miterlimit="10" x1="69.45" y1="197.53" x2="69.45" y2="203.29"/>
			<line fill="none" stroke="#3D3C45" stroke-width="3" stroke-miterlimit="10" x1="80.44" y1="197.53" x2="80.44" y2="203.29"/>
			<line fill="none" stroke="#3D3C45" stroke-width="3" stroke-miterlimit="10" x1="91.44" y1="197.53" x2="91.44" y2="203.29"/>
		</g>
	</g>
	<g>
		<path fill="#F15922" stroke="#3D3C45" stroke-width="3" stroke-miterlimit="10" d="M243.08,134.73c-3.98,0-7.21,3.23-7.21,7.21
			v15.94h14.42v-15.94C250.29,137.95,247.06,134.73,243.08,134.73z"/>
		<g>
			<polygon fill="#4D7DBF" stroke="#3D3C45" stroke-width="3" stroke-miterlimit="10" points="260.44,156.14 225.72,156.14 
				209.95,189.7 276.21,189.7 			"/>
			<polyline fill="#3968B2" stroke="#3D3C45" stroke-width="3" stroke-miterlimit="10" points="243.08,189.7 276.21,189.7 
				260.44,156.14 243.08,156.14 			"/>
		</g>
		
			<ellipse transform="matrix(0.7071 -0.7071 0.7071 0.7071 -65.1951 228.3793)" fill="#6FCEEE" stroke="#3D3C45" stroke-width="3" stroke-miterlimit="10" cx="243.08" cy="192.89" rx="17.07" ry="17.07"/>
		
			<rect x="199.97" y="209.96" fill="#B2AF9E" stroke="#3D3C45" stroke-width="3" stroke-miterlimit="10" width="86.23" height="156.25"/>
		
			<rect x="208.65" y="218.64" fill="#6FCEEE" stroke="#3D3C45" stroke-width="3" stroke-miterlimit="10" width="68.87" height="111.69"/>
		<line fill="none" stroke="#3D3C45" stroke-width="3" stroke-miterlimit="10" x1="208.65" y1="228.83" x2="277.51" y2="228.83"/>
		<line fill="none" stroke="#3D3C45" stroke-width="3" stroke-miterlimit="10" x1="208.65" y1="237.74" x2="277.51" y2="237.74"/>
		<line fill="none" stroke="#3D3C45" stroke-width="3" stroke-miterlimit="10" x1="208.65" y1="246.65" x2="277.51" y2="246.65"/>
		<line fill="none" stroke="#3D3C45" stroke-width="3" stroke-miterlimit="10" x1="208.65" y1="255.56" x2="277.51" y2="255.56"/>
		<line fill="none" stroke="#3D3C45" stroke-width="3" stroke-miterlimit="10" x1="208.65" y1="264.47" x2="277.51" y2="264.47"/>
		<line fill="none" stroke="#3D3C45" stroke-width="3" stroke-miterlimit="10" x1="208.65" y1="273.38" x2="277.51" y2="273.38"/>
		<line fill="none" stroke="#3D3C45" stroke-width="3" stroke-miterlimit="10" x1="208.65" y1="282.29" x2="277.51" y2="282.29"/>
		<line fill="none" stroke="#3D3C45" stroke-width="3" stroke-miterlimit="10" x1="208.65" y1="291.21" x2="277.51" y2="291.21"/>
		<line fill="none" stroke="#3D3C45" stroke-width="3" stroke-miterlimit="10" x1="208.65" y1="300.12" x2="277.51" y2="300.12"/>
		<line fill="none" stroke="#3D3C45" stroke-width="3" stroke-miterlimit="10" x1="208.65" y1="309.03" x2="277.51" y2="309.03"/>
		<line fill="none" stroke="#3D3C45" stroke-width="3" stroke-miterlimit="10" x1="208.65" y1="317.94" x2="277.51" y2="317.94"/>
		<g>
			<line fill="none" stroke="#3D3C45" stroke-width="3" stroke-miterlimit="10" x1="230.64" y1="218.64" x2="230.64" y2="329.75"/>
			<line fill="none" stroke="#3D3C45" stroke-width="3" stroke-miterlimit="10" x1="255.52" y1="218.64" x2="255.52" y2="329.75"/>
		</g>
		
			<rect x="205.75" y="189.7" fill="#6FCEEE" stroke="#3D3C45" stroke-width="3" stroke-miterlimit="10" width="74.65" height="20.25"/>
		<g>
			<line fill="none" stroke="#3D3C45" stroke-width="3" stroke-miterlimit="10" x1="221.09" y1="197.53" x2="221.09" y2="203.29"/>
			<line fill="none" stroke="#3D3C45" stroke-width="3" stroke-miterlimit="10" x1="232.09" y1="197.53" x2="232.09" y2="203.29"/>
			<line fill="none" stroke="#3D3C45" stroke-width="3" stroke-miterlimit="10" x1="243.08" y1="197.53" x2="243.08" y2="203.29"/>
			<line fill="none" stroke="#3D3C45" stroke-width="3" stroke-miterlimit="10" x1="254.08" y1="197.53" x2="254.08" y2="203.29"/>
			<line fill="none" stroke="#3D3C45" stroke-width="3" stroke-miterlimit="10" x1="265.07" y1="197.53" x2="265.07" y2="203.29"/>
		</g>
	</g>
	<g>
		<path fill="#F15922" stroke="#3D3C45" stroke-width="3" stroke-miterlimit="10" d="M157.4,236.9c-2.22,0-4.03,1.8-4.03,4.03v8.9
			h8.06v-8.9C161.42,238.7,159.62,236.9,157.4,236.9z"/>
		<g>
			<polygon fill="#4D7DBF" stroke="#3D3C45" stroke-width="3" stroke-miterlimit="10" points="167.09,248.86 147.7,248.86 
				138.89,267.61 175.9,267.61 			"/>
			<polyline fill="#3968B2" stroke="#3D3C45" stroke-width="3" stroke-miterlimit="10" points="157.4,267.61 175.9,267.61 
				167.09,248.86 157.4,248.86 			"/>
		</g>
		<circle fill="#6FCEEE" stroke="#3D3C45" stroke-width="3" stroke-miterlimit="10" cx="157.4" cy="269.39" r="9.54"/>
		
			<rect x="133.31" y="278.93" fill="#B2AF9E" stroke="#3D3C45" stroke-width="3" stroke-miterlimit="10" width="48.17" height="87.29"/>
		
			<rect x="138.16" y="283.78" fill="#6FCEEE" stroke="#3D3C45" stroke-width="3" stroke-miterlimit="10" width="38.47" height="62.39"/>
		<line fill="none" stroke="#3D3C45" stroke-width="3" stroke-miterlimit="10" x1="138.16" y1="289.47" x2="176.63" y2="289.47"/>
		<line fill="none" stroke="#3D3C45" stroke-width="3" stroke-miterlimit="10" x1="138.16" y1="294.44" x2="176.63" y2="294.44"/>
		<line fill="none" stroke="#3D3C45" stroke-width="3" stroke-miterlimit="10" x1="138.16" y1="299.42" x2="176.63" y2="299.42"/>
		<line fill="none" stroke="#3D3C45" stroke-width="3" stroke-miterlimit="10" x1="138.16" y1="304.4" x2="176.63" y2="304.4"/>
		<line fill="none" stroke="#3D3C45" stroke-width="3" stroke-miterlimit="10" x1="138.16" y1="309.38" x2="176.63" y2="309.38"/>
		<line fill="none" stroke="#3D3C45" stroke-width="3" stroke-miterlimit="10" x1="138.16" y1="314.36" x2="176.63" y2="314.36"/>
		<line fill="none" stroke="#3D3C45" stroke-width="3" stroke-miterlimit="10" x1="138.16" y1="319.33" x2="176.63" y2="319.33"/>
		<line fill="none" stroke="#3D3C45" stroke-width="3" stroke-miterlimit="10" x1="138.16" y1="324.31" x2="176.63" y2="324.31"/>
		<line fill="none" stroke="#3D3C45" stroke-width="3" stroke-miterlimit="10" x1="138.16" y1="329.29" x2="176.63" y2="329.29"/>
		<line fill="none" stroke="#3D3C45" stroke-width="3" stroke-miterlimit="10" x1="138.16" y1="334.27" x2="176.63" y2="334.27"/>
		<line fill="none" stroke="#3D3C45" stroke-width="3" stroke-miterlimit="10" x1="138.16" y1="339.25" x2="176.63" y2="339.25"/>
		<g>
			<line fill="none" stroke="#3D3C45" stroke-width="3" stroke-miterlimit="10" x1="150.45" y1="283.78" x2="150.45" y2="345.85"/>
			<line fill="none" stroke="#3D3C45" stroke-width="3" stroke-miterlimit="10" x1="164.35" y1="283.78" x2="164.35" y2="345.85"/>
		</g>
		
			<rect x="136.54" y="267.61" fill="#6FCEEE" stroke="#3D3C45" stroke-width="3" stroke-miterlimit="10" width="41.7" height="11.31"/>
		<g>
			<line fill="none" stroke="#3D3C45" stroke-width="3" stroke-miterlimit="10" x1="145.11" y1="271.98" x2="145.11" y2="275.2"/>
			<line fill="none" stroke="#3D3C45" stroke-width="3" stroke-miterlimit="10" x1="151.25" y1="271.98" x2="151.25" y2="275.2"/>
			<line fill="none" stroke="#3D3C45" stroke-width="3" stroke-miterlimit="10" x1="157.4" y1="271.98" x2="157.4" y2="275.2"/>
			<line fill="none" stroke="#3D3C45" stroke-width="3" stroke-miterlimit="10" x1="163.54" y1="271.98" x2="163.54" y2="275.2"/>
			<line fill="none" stroke="#3D3C45" stroke-width="3" stroke-miterlimit="10" x1="169.68" y1="271.98" x2="169.68" y2="275.2"/>
		</g>
	</g>
</g>
<g>
	<polygon fill="#E9A822" stroke="#3D3C45" stroke-width="3" stroke-miterlimit="10" points="939.7,54.9 906.03,54.9 895.18,93.73 
		950.54,93.73 	"/>
	
		<rect x="891.49" y="93.73" fill="#6FCEEE" stroke="#3D3C45" stroke-width="3" stroke-miterlimit="10" width="62.75" height="60.43"/>
	
		<rect x="906.59" y="93.73" fill="#B2AF9E" stroke="#3D3C45" stroke-width="3" stroke-miterlimit="10" width="32.54" height="60.43"/>
	
		<rect x="879.07" y="154.16" fill="#F4EDD0" stroke="#3D3C45" stroke-width="3" stroke-miterlimit="10" width="87.6" height="211.51"/>
	<g>
		
			<rect x="890.32" y="154.16" fill="#3968B2" stroke="#3D3C45" stroke-width="3" stroke-miterlimit="10" width="16.27" height="211.51"/>
		
			<rect x="939.13" y="154.16" fill="#3968B2" stroke="#3D3C45" stroke-width="3" stroke-miterlimit="10" width="16.27" height="211.51"/>
	</g>
	<g>
		<line fill="none" stroke="#3D3C45" stroke-width="3" stroke-miterlimit="10" x1="907.79" y1="54.9" x2="907.79" y2="33.89"/>
		<line fill="none" stroke="#3D3C45" stroke-width="3" stroke-miterlimit="10" x1="937.94" y1="54.9" x2="937.94" y2="33.89"/>
	</g>
</g>
<g>
	<polygon fill="#E9A822" stroke="#3D3C45" stroke-width="3" stroke-miterlimit="10" points="436.2,366.64 436.2,164.39 
		448.43,164.39 448.43,155.75 475.06,155.75 475.06,146.4 521.13,146.4 521.13,366.64 	"/>
	<polygon fill="#FEE341" stroke="#3D3C45" stroke-width="3" stroke-miterlimit="10" points="487.1,366.64 487.1,172.78 
		494.98,172.78 494.98,160.17 506.01,160.17 506.01,144.41 540.69,144.41 555.66,134.16 555.66,157.8 565.9,157.8 565.9,181.45 
		550.93,181.45 550.93,366.64 	"/>
	<polygon fill="#E9A822" stroke="#3D3C45" stroke-width="3" stroke-miterlimit="10" points="593.1,181.45 593.1,168.16 
		565.9,168.16 565.9,181.45 550.93,181.45 550.93,366.64 641.32,366.64 641.32,181.45 	"/>
	<g>
		<line fill="none" stroke="#3D3C45" stroke-width="3" stroke-miterlimit="10" x1="445.76" y1="185.39" x2="473.11" y2="185.39"/>
		<line fill="none" stroke="#3D3C45" stroke-width="3" stroke-miterlimit="10" x1="445.76" y1="190.99" x2="473.11" y2="190.99"/>
		<line fill="none" stroke="#3D3C45" stroke-width="3" stroke-miterlimit="10" x1="445.76" y1="196.59" x2="473.11" y2="196.59"/>
		<line fill="none" stroke="#3D3C45" stroke-width="3" stroke-miterlimit="10" x1="445.76" y1="202.19" x2="473.11" y2="202.19"/>
		<line fill="none" stroke="#3D3C45" stroke-width="3" stroke-miterlimit="10" x1="445.76" y1="207.79" x2="473.11" y2="207.79"/>
		<line fill="none" stroke="#3D3C45" stroke-width="3" stroke-miterlimit="10" x1="445.76" y1="213.39" x2="473.11" y2="213.39"/>
		<line fill="none" stroke="#3D3C45" stroke-width="3" stroke-miterlimit="10" x1="445.76" y1="218.99" x2="473.11" y2="218.99"/>
		<line fill="none" stroke="#3D3C45" stroke-width="3" stroke-miterlimit="10" x1="445.76" y1="224.59" x2="473.11" y2="224.59"/>
		<line fill="none" stroke="#3D3C45" stroke-width="3" stroke-miterlimit="10" x1="445.76" y1="230.19" x2="473.11" y2="230.19"/>
		<line fill="none" stroke="#3D3C45" stroke-width="3" stroke-miterlimit="10" x1="445.76" y1="235.79" x2="473.11" y2="235.79"/>
		<line fill="none" stroke="#3D3C45" stroke-width="3" stroke-miterlimit="10" x1="445.76" y1="241.39" x2="473.11" y2="241.39"/>
		<line fill="none" stroke="#3D3C45" stroke-width="3" stroke-miterlimit="10" x1="445.76" y1="246.99" x2="473.11" y2="246.99"/>
		<line fill="none" stroke="#3D3C45" stroke-width="3" stroke-miterlimit="10" x1="445.76" y1="252.59" x2="473.11" y2="252.59"/>
		<line fill="none" stroke="#3D3C45" stroke-width="3" stroke-miterlimit="10" x1="445.76" y1="258.19" x2="473.11" y2="258.19"/>
		<line fill="none" stroke="#3D3C45" stroke-width="3" stroke-miterlimit="10" x1="445.76" y1="263.79" x2="473.11" y2="263.79"/>
		<line fill="none" stroke="#3D3C45" stroke-width="3" stroke-miterlimit="10" x1="445.76" y1="269.39" x2="473.11" y2="269.39"/>
		<line fill="none" stroke="#3D3C45" stroke-width="3" stroke-miterlimit="10" x1="445.76" y1="274.99" x2="473.11" y2="274.99"/>
		<line fill="none" stroke="#3D3C45" stroke-width="3" stroke-miterlimit="10" x1="445.76" y1="280.59" x2="473.11" y2="280.59"/>
		<line fill="none" stroke="#3D3C45" stroke-width="3" stroke-miterlimit="10" x1="445.76" y1="286.19" x2="473.11" y2="286.19"/>
		<line fill="none" stroke="#3D3C45" stroke-width="3" stroke-miterlimit="10" x1="445.76" y1="291.79" x2="473.11" y2="291.79"/>
		<line fill="none" stroke="#3D3C45" stroke-width="3" stroke-miterlimit="10" x1="445.76" y1="297.39" x2="473.11" y2="297.39"/>
		<line fill="none" stroke="#3D3C45" stroke-width="3" stroke-miterlimit="10" x1="445.76" y1="302.99" x2="473.11" y2="302.99"/>
		<line fill="none" stroke="#3D3C45" stroke-width="3" stroke-miterlimit="10" x1="445.76" y1="308.59" x2="473.11" y2="308.59"/>
		<line fill="none" stroke="#3D3C45" stroke-width="3" stroke-miterlimit="10" x1="445.76" y1="314.19" x2="473.11" y2="314.19"/>
		<line fill="none" stroke="#3D3C45" stroke-width="3" stroke-miterlimit="10" x1="445.76" y1="319.79" x2="473.11" y2="319.79"/>
		<line fill="none" stroke="#3D3C45" stroke-width="3" stroke-miterlimit="10" x1="445.76" y1="325.39" x2="473.11" y2="325.39"/>
		<line fill="none" stroke="#3D3C45" stroke-width="3" stroke-miterlimit="10" x1="445.76" y1="330.99" x2="473.11" y2="330.99"/>
		<line fill="none" stroke="#3D3C45" stroke-width="3" stroke-miterlimit="10" x1="445.76" y1="336.59" x2="473.11" y2="336.59"/>
		<line fill="none" stroke="#3D3C45" stroke-width="3" stroke-miterlimit="10" x1="445.76" y1="342.19" x2="473.11" y2="342.19"/>
	</g>
	<g>
		<line fill="none" stroke="#3D3C45" stroke-width="3" stroke-miterlimit="10" x1="507.45" y1="185.39" x2="534.8" y2="185.39"/>
		<line fill="none" stroke="#3D3C45" stroke-width="3" stroke-miterlimit="10" x1="507.45" y1="190.99" x2="534.8" y2="190.99"/>
		<line fill="none" stroke="#3D3C45" stroke-width="3" stroke-miterlimit="10" x1="507.45" y1="196.59" x2="534.8" y2="196.59"/>
		<line fill="none" stroke="#3D3C45" stroke-width="3" stroke-miterlimit="10" x1="507.45" y1="202.19" x2="534.8" y2="202.19"/>
		<line fill="none" stroke="#3D3C45" stroke-width="3" stroke-miterlimit="10" x1="507.45" y1="207.79" x2="534.8" y2="207.79"/>
		<line fill="none" stroke="#3D3C45" stroke-width="3" stroke-miterlimit="10" x1="507.45" y1="213.39" x2="534.8" y2="213.39"/>
		<line fill="none" stroke="#3D3C45" stroke-width="3" stroke-miterlimit="10" x1="507.45" y1="218.99" x2="534.8" y2="218.99"/>
		<line fill="none" stroke="#3D3C45" stroke-width="3" stroke-miterlimit="10" x1="507.45" y1="224.59" x2="534.8" y2="224.59"/>
		<line fill="none" stroke="#3D3C45" stroke-width="3" stroke-miterlimit="10" x1="507.45" y1="230.19" x2="534.8" y2="230.19"/>
		<line fill="none" stroke="#3D3C45" stroke-width="3" stroke-miterlimit="10" x1="507.45" y1="235.79" x2="534.8" y2="235.79"/>
		<line fill="none" stroke="#3D3C45" stroke-width="3" stroke-miterlimit="10" x1="507.45" y1="241.39" x2="534.8" y2="241.39"/>
		<line fill="none" stroke="#3D3C45" stroke-width="3" stroke-miterlimit="10" x1="507.45" y1="246.99" x2="534.8" y2="246.99"/>
		<line fill="none" stroke="#3D3C45" stroke-width="3" stroke-miterlimit="10" x1="507.45" y1="252.59" x2="534.8" y2="252.59"/>
		<line fill="none" stroke="#3D3C45" stroke-width="3" stroke-miterlimit="10" x1="507.45" y1="258.19" x2="534.8" y2="258.19"/>
		<line fill="none" stroke="#3D3C45" stroke-width="3" stroke-miterlimit="10" x1="507.45" y1="263.79" x2="534.8" y2="263.79"/>
		<line fill="none" stroke="#3D3C45" stroke-width="3" stroke-miterlimit="10" x1="507.45" y1="269.39" x2="534.8" y2="269.39"/>
		<line fill="none" stroke="#3D3C45" stroke-width="3" stroke-miterlimit="10" x1="507.45" y1="274.99" x2="534.8" y2="274.99"/>
		<line fill="none" stroke="#3D3C45" stroke-width="3" stroke-miterlimit="10" x1="507.45" y1="280.59" x2="534.8" y2="280.59"/>
		<line fill="none" stroke="#3D3C45" stroke-width="3" stroke-miterlimit="10" x1="507.45" y1="286.19" x2="534.8" y2="286.19"/>
		<line fill="none" stroke="#3D3C45" stroke-width="3" stroke-miterlimit="10" x1="507.45" y1="291.79" x2="534.8" y2="291.79"/>
		<line fill="none" stroke="#3D3C45" stroke-width="3" stroke-miterlimit="10" x1="507.45" y1="297.39" x2="534.8" y2="297.39"/>
		<line fill="none" stroke="#3D3C45" stroke-width="3" stroke-miterlimit="10" x1="507.45" y1="302.99" x2="534.8" y2="302.99"/>
		<line fill="none" stroke="#3D3C45" stroke-width="3" stroke-miterlimit="10" x1="507.45" y1="308.59" x2="534.8" y2="308.59"/>
		<line fill="none" stroke="#3D3C45" stroke-width="3" stroke-miterlimit="10" x1="507.45" y1="314.19" x2="534.8" y2="314.19"/>
		<line fill="none" stroke="#3D3C45" stroke-width="3" stroke-miterlimit="10" x1="507.45" y1="319.79" x2="534.8" y2="319.79"/>
		<line fill="none" stroke="#3D3C45" stroke-width="3" stroke-miterlimit="10" x1="507.45" y1="325.39" x2="534.8" y2="325.39"/>
		<line fill="none" stroke="#3D3C45" stroke-width="3" stroke-miterlimit="10" x1="507.45" y1="330.99" x2="534.8" y2="330.99"/>
		<line fill="none" stroke="#3D3C45" stroke-width="3" stroke-miterlimit="10" x1="507.45" y1="336.59" x2="534.8" y2="336.59"/>
		<line fill="none" stroke="#3D3C45" stroke-width="3" stroke-miterlimit="10" x1="507.45" y1="342.19" x2="534.8" y2="342.19"/>
	</g>
	<g>
		<line fill="none" stroke="#3D3C45" stroke-width="3" stroke-miterlimit="10" x1="570.78" y1="190.99" x2="598.14" y2="190.99"/>
		<line fill="none" stroke="#3D3C45" stroke-width="3" stroke-miterlimit="10" x1="570.78" y1="196.59" x2="598.14" y2="196.59"/>
		<line fill="none" stroke="#3D3C45" stroke-width="3" stroke-miterlimit="10" x1="570.78" y1="202.19" x2="598.14" y2="202.19"/>
		<line fill="none" stroke="#3D3C45" stroke-width="3" stroke-miterlimit="10" x1="570.78" y1="207.79" x2="598.14" y2="207.79"/>
		<line fill="none" stroke="#3D3C45" stroke-width="3" stroke-miterlimit="10" x1="570.78" y1="213.39" x2="598.14" y2="213.39"/>
		<line fill="none" stroke="#3D3C45" stroke-width="3" stroke-miterlimit="10" x1="570.78" y1="218.99" x2="598.14" y2="218.99"/>
		<line fill="none" stroke="#3D3C45" stroke-width="3" stroke-miterlimit="10" x1="570.78" y1="224.59" x2="598.14" y2="224.59"/>
		<line fill="none" stroke="#3D3C45" stroke-width="3" stroke-miterlimit="10" x1="570.78" y1="230.19" x2="598.14" y2="230.19"/>
		<line fill="none" stroke="#3D3C45" stroke-width="3" stroke-miterlimit="10" x1="570.78" y1="235.79" x2="598.14" y2="235.79"/>
		<line fill="none" stroke="#3D3C45" stroke-width="3" stroke-miterlimit="10" x1="570.78" y1="241.39" x2="598.14" y2="241.39"/>
		<line fill="none" stroke="#3D3C45" stroke-width="3" stroke-miterlimit="10" x1="570.78" y1="246.99" x2="598.14" y2="246.99"/>
		<line fill="none" stroke="#3D3C45" stroke-width="3" stroke-miterlimit="10" x1="570.78" y1="252.59" x2="598.14" y2="252.59"/>
		<line fill="none" stroke="#3D3C45" stroke-width="3" stroke-miterlimit="10" x1="570.78" y1="258.19" x2="598.14" y2="258.19"/>
		<line fill="none" stroke="#3D3C45" stroke-width="3" stroke-miterlimit="10" x1="570.78" y1="263.79" x2="598.14" y2="263.79"/>
		<line fill="none" stroke="#3D3C45" stroke-width="3" stroke-miterlimit="10" x1="570.78" y1="269.39" x2="598.14" y2="269.39"/>
		<line fill="none" stroke="#3D3C45" stroke-width="3" stroke-miterlimit="10" x1="570.78" y1="274.99" x2="598.14" y2="274.99"/>
		<line fill="none" stroke="#3D3C45" stroke-width="3" stroke-miterlimit="10" x1="570.78" y1="280.59" x2="598.14" y2="280.59"/>
		<line fill="none" stroke="#3D3C45" stroke-width="3" stroke-miterlimit="10" x1="570.78" y1="286.19" x2="598.14" y2="286.19"/>
		<line fill="none" stroke="#3D3C45" stroke-width="3" stroke-miterlimit="10" x1="570.78" y1="291.79" x2="598.14" y2="291.79"/>
		<line fill="none" stroke="#3D3C45" stroke-width="3" stroke-miterlimit="10" x1="570.78" y1="297.39" x2="598.14" y2="297.39"/>
		<line fill="none" stroke="#3D3C45" stroke-width="3" stroke-miterlimit="10" x1="570.78" y1="302.99" x2="598.14" y2="302.99"/>
		<line fill="none" stroke="#3D3C45" stroke-width="3" stroke-miterlimit="10" x1="570.78" y1="308.59" x2="598.14" y2="308.59"/>
		<line fill="none" stroke="#3D3C45" stroke-width="3" stroke-miterlimit="10" x1="570.78" y1="314.19" x2="598.14" y2="314.19"/>
		<line fill="none" stroke="#3D3C45" stroke-width="3" stroke-miterlimit="10" x1="570.78" y1="319.79" x2="598.14" y2="319.79"/>
		<line fill="none" stroke="#3D3C45" stroke-width="3" stroke-miterlimit="10" x1="570.78" y1="325.39" x2="598.14" y2="325.39"/>
		<line fill="none" stroke="#3D3C45" stroke-width="3" stroke-miterlimit="10" x1="570.78" y1="330.99" x2="598.14" y2="330.99"/>
		<line fill="none" stroke="#3D3C45" stroke-width="3" stroke-miterlimit="10" x1="570.78" y1="336.59" x2="598.14" y2="336.59"/>
		<line fill="none" stroke="#3D3C45" stroke-width="3" stroke-miterlimit="10" x1="570.78" y1="342.19" x2="598.14" y2="342.19"/>
	</g>
</g>
<g>
	<g>
		<rect x="822.41" y="276.6" fill="#3968B2" stroke="#3D3C45" stroke-width="3" stroke-miterlimit="10" width="34.06" height="11"/>
		
			<rect x="822.41" y="287.6" fill="#F4EDD0" stroke="#3D3C45" stroke-width="3" stroke-miterlimit="10" width="75.54" height="20.53"/>
		
			<rect x="625.92" y="340.24" fill="#4D7DBF" stroke="#3D3C45" stroke-width="3" stroke-miterlimit="10" width="262.39" height="38.08"/>
		<g>
			<polygon fill="#4D657A" stroke="#3D3C45" stroke-width="3" stroke-miterlimit="10" points="597.81,339.32 587.41,378.32 
				580.51,378.32 591.44,337.35 			"/>
		</g>
		<g>
			<polygon fill="#4D657A" stroke="#3D3C45" stroke-width="3" stroke-miterlimit="10" points="627.53,378.32 620.63,378.32 
				610.23,339.32 616.6,337.35 			"/>
		</g>
		<g>
			<polygon fill="#4D657A" stroke="#3D3C45" stroke-width="3" stroke-miterlimit="10" points="677.26,378.32 670.37,378.32 
				659.96,339.32 666.33,337.35 			"/>
		</g>
		<g>
			<polygon fill="#4D657A" stroke="#3D3C45" stroke-width="3" stroke-miterlimit="10" points="725.68,378.32 718.79,378.32 
				708.38,339.32 714.75,337.35 			"/>
		</g>
		<g>
			<polygon fill="#4D657A" stroke="#3D3C45" stroke-width="3" stroke-miterlimit="10" points="650.13,339.32 639.73,378.32 
				632.83,378.32 643.76,337.35 			"/>
		</g>
		<g>
			<polygon fill="#4D657A" stroke="#3D3C45" stroke-width="3" stroke-miterlimit="10" points="701.05,339.32 690.64,378.32 
				683.75,378.32 694.68,337.35 			"/>
		</g>
		
			<rect x="596.73" y="287.6" fill="#F4EDD0" stroke="#3D3C45" stroke-width="3" stroke-miterlimit="10" width="125.12" height="20.53"/>
		
			<rect x="596.73" y="287.6" fill="#6FCEEE" stroke="#3D3C45" stroke-width="3" stroke-miterlimit="10" width="125.12" height="6.72"/>
		
			<rect x="823.88" y="287.6" fill="#6FCEEE" stroke="#3D3C45" stroke-width="3" stroke-miterlimit="10" width="81.78" height="6.72"/>
		
			<rect x="738.13" y="267.44" fill="#3968B2" stroke="#3D3C45" stroke-width="3" stroke-miterlimit="10" width="73.27" height="92.96"/>
		
			<rect x="796.89" y="267.44" fill="#3968B2" stroke="#3D3C45" stroke-width="3" stroke-miterlimit="10" width="26.99" height="92.96"/>
		
			<rect x="572.85" y="308.13" fill="#3968B2" stroke="#3D3C45" stroke-width="3" stroke-miterlimit="10" width="102.19" height="32.11"/>
		
			<rect x="600.16" y="317.84" fill="#6FCEEE" stroke="#3D3C45" stroke-width="3" stroke-miterlimit="10" width="35.99" height="13.44"/>
		
			<rect x="675.04" y="308.13" fill="#4D657A" stroke="#3D3C45" stroke-width="3" stroke-miterlimit="10" width="13.39" height="32.11"/>
		
			<rect x="688.42" y="308.13" fill="#3968B2" stroke="#3D3C45" stroke-width="3" stroke-miterlimit="10" width="49.7" height="32.11"/>
		
			<rect x="675.04" y="314.48" fill="#6FCEEE" stroke="#3D3C45" stroke-width="3" stroke-miterlimit="10" width="6.69" height="9.71"/>
		
			<rect x="699.87" y="317.84" fill="#6FCEEE" stroke="#3D3C45" stroke-width="3" stroke-miterlimit="10" width="5.27" height="15.68"/>
		
			<rect x="713.28" y="311.49" fill="#6FCEEE" stroke="#3D3C45" stroke-width="3" stroke-miterlimit="10" width="5.27" height="15.68"/>
		
			<rect x="725.21" y="316.72" fill="#6FCEEE" stroke="#3D3C45" stroke-width="3" stroke-miterlimit="10" width="5.27" height="15.68"/>
		
			<rect x="721.84" y="287.6" fill="#B2AF9E" stroke="#3D3C45" stroke-width="3" stroke-miterlimit="10" width="63.63" height="20.53"/>
		
			<rect x="721.84" y="287.6" fill="#6FCEEE" stroke="#3D3C45" stroke-width="3" stroke-miterlimit="10" width="63.63" height="6.72"/>
		
			<rect x="760.39" y="316.35" fill="#6FCEEE" stroke="#3D3C45" stroke-width="3" stroke-miterlimit="10" width="5.27" height="15.68"/>
		<line fill="none" stroke="#3D3C45" stroke-width="3" stroke-miterlimit="10" x1="785.48" y1="308.13" x2="796.29" y2="308.13"/>
		
			<rect x="823.88" y="308.13" fill="#6FCEEE" stroke="#3D3C45" stroke-width="3" stroke-miterlimit="10" width="74.07" height="51.15"/>
		<line fill="none" stroke="#3D3C45" stroke-width="3" stroke-miterlimit="10" x1="608.95" y1="319.33" x2="608.95" y2="331.28"/>
		<line fill="none" stroke="#3D3C45" stroke-width="3" stroke-miterlimit="10" x1="617.01" y1="319.33" x2="617.01" y2="331.28"/>
		<line fill="none" stroke="#3D3C45" stroke-width="3" stroke-miterlimit="10" x1="625.07" y1="319.33" x2="625.07" y2="331.28"/>
	</g>
	<line fill="none" stroke="#3D3C45" stroke-width="3" stroke-miterlimit="10" x1="830.91" y1="316.72" x2="888.31" y2="316.72"/>
	<line fill="none" stroke="#3D3C45" stroke-width="3" stroke-miterlimit="10" x1="830.91" y1="324.19" x2="888.31" y2="324.19"/>
	<line fill="none" stroke="#3D3C45" stroke-width="3" stroke-miterlimit="10" x1="830.91" y1="331.65" x2="888.31" y2="331.65"/>
	<line fill="none" stroke="#3D3C45" stroke-width="3" stroke-miterlimit="10" x1="830.91" y1="339.12" x2="888.31" y2="339.12"/>
	<line fill="none" stroke="#3D3C45" stroke-width="3" stroke-miterlimit="10" x1="830.91" y1="346.59" x2="888.31" y2="346.59"/>
	<g>
		<line fill="none" stroke="#3D3C45" stroke-width="3" stroke-miterlimit="10" x1="804.27" y1="272.37" x2="815.49" y2="272.37"/>
		<line fill="none" stroke="#3D3C45" stroke-width="3" stroke-miterlimit="10" x1="804.27" y1="282.1" x2="815.49" y2="282.1"/>
		<line fill="none" stroke="#3D3C45" stroke-width="3" stroke-miterlimit="10" x1="804.27" y1="291.83" x2="815.49" y2="291.83"/>
		<line fill="none" stroke="#3D3C45" stroke-width="3" stroke-miterlimit="10" x1="804.27" y1="301.55" x2="815.49" y2="301.55"/>
		<line fill="none" stroke="#3D3C45" stroke-width="3" stroke-miterlimit="10" x1="804.27" y1="311.28" x2="815.49" y2="311.28"/>
		<line fill="none" stroke="#3D3C45" stroke-width="3" stroke-miterlimit="10" x1="804.27" y1="321.01" x2="815.49" y2="321.01"/>
	</g>
</g>
<g>
	<path fill="#4D657A" stroke="#3D3C45" stroke-width="3" stroke-miterlimit="10" d="M388.01,145.53
		c-4.73,0.42-10.32,1.78-14.88,5.34c0,0-7.12,34.86-11.39,49.1c0,0-13.53,39,0,80.03l4.98,118.64h42.01c0,0,4.98-96.29,9.26-118.64
		c0,0,14.95-53.68,0-85.01c0,0-5.7-28.52-5.7-36.32c0,0-0.27-0.58-0.82-1.5C406.6,149.07,397.41,144.69,388.01,145.53z"/>
	<path fill="none" stroke="#3D3C45" stroke-width="3" stroke-miterlimit="10" d="M370.67,162.57c0,0,21.03-13.34,43.11,9.01"/>
	<path fill="none" stroke="#3D3C45" stroke-width="3" stroke-miterlimit="10" d="M355.72,242.03c0,0,34.17-15.34,66.26,19.05"/>
	<line fill="none" stroke="#3D3C45" stroke-width="3" stroke-miterlimit="10" x1="370.67" y1="307.71" x2="398.96" y2="307.71"/>
	<line fill="none" stroke="#3D3C45" stroke-width="3" stroke-miterlimit="10" x1="370.67" y1="313.84" x2="398.96" y2="313.84"/>
	<line fill="none" stroke="#3D3C45" stroke-width="3" stroke-miterlimit="10" x1="370.67" y1="319.97" x2="398.96" y2="319.97"/>
	<line fill="none" stroke="#3D3C45" stroke-width="3" stroke-miterlimit="10" x1="370.67" y1="326.1" x2="398.96" y2="326.1"/>
	<line fill="none" stroke="#3D3C45" stroke-width="3" stroke-miterlimit="10" x1="370.67" y1="332.23" x2="398.96" y2="332.23"/>
	<line fill="none" stroke="#3D3C45" stroke-width="3" stroke-miterlimit="10" x1="370.67" y1="338.36" x2="398.96" y2="338.36"/>
	<line fill="none" stroke="#3D3C45" stroke-width="3" stroke-miterlimit="10" x1="379.47" y1="344.48" x2="398.96" y2="344.48"/>
	<line fill="none" stroke="#3D3C45" stroke-width="3" stroke-miterlimit="10" x1="379.47" y1="350.61" x2="398.96" y2="350.61"/>
	<line fill="none" stroke="#3D3C45" stroke-width="3" stroke-miterlimit="10" x1="379.47" y1="356.74" x2="398.96" y2="356.74"/>
	<line fill="none" stroke="#3D3C45" stroke-width="3" stroke-miterlimit="10" x1="379.47" y1="362.87" x2="398.96" y2="362.87"/>
	<line fill="none" stroke="#3D3C45" stroke-width="3" stroke-miterlimit="10" x1="379.47" y1="369" x2="398.96" y2="369"/>
	<path fill="none" stroke="#3D3C45" stroke-width="3" stroke-miterlimit="10" d="M384.81,176.9c0,0,13.13-3.34,24.77,6.68"/>
	<path fill="none" stroke="#3D3C45" stroke-width="3" stroke-miterlimit="10" d="M384.81,184.11c0,0,13.13-3.34,24.77,6.68"/>
	<path fill="none" stroke="#3D3C45" stroke-width="3" stroke-miterlimit="10" d="M384.81,191.33c0,0,13.13-3.34,24.77,6.68"/>
	<path fill="none" stroke="#3D3C45" stroke-width="3" stroke-miterlimit="10" d="M384.81,198.54c0,0,13.13-3.34,24.77,6.68"/>
	<path fill="none" stroke="#3D3C45" stroke-width="3" stroke-miterlimit="10" d="M384.81,205.76c0,0,13.13-3.34,24.77,6.68"/>
</g>
<g>
	<path fill="#3968B2" stroke="#3D3C45" stroke-width="3" stroke-miterlimit="10" d="M286.66,99.19c0,0,4.98,42.73,0,74.77
		l-3.41,19.33c-1.94,11.01-1.04,22.33,2.63,32.9c4.24,12.21,9.33,27.47,9.33,30.38l-4.27,140.99h59.82c0,0-5.7-107.69-12.11-126.48
		c0,0,36.44-54.65,2.85-107.8l-5.05-62.82c-0.69-8.56-7.47-15.43-16.04-16.07C311.61,83.73,299.71,86.39,286.66,99.19z"/>
	<path fill="none" stroke="#3D3C45" stroke-width="3" stroke-miterlimit="10" d="M302.15,123.47c0,0,6.12-9.46,22.82-6.68"/>
	<path fill="none" stroke="#3D3C45" stroke-width="3" stroke-miterlimit="10" d="M302.15,133.18c0,0,6.12-9.46,22.82-6.68"/>
	<path fill="none" stroke="#3D3C45" stroke-width="3" stroke-miterlimit="10" d="M302.15,142.9c0,0,6.12-9.46,22.82-6.68"/>
	<path fill="none" stroke="#3D3C45" stroke-width="3" stroke-miterlimit="10" d="M302.15,152.62c0,0,6.12-9.46,22.82-6.68"/>
	<path fill="none" stroke="#3D3C45" stroke-width="3" stroke-miterlimit="10" d="M302.15,162.34c0,0,6.12-9.46,22.82-6.68"/>
	<path fill="none" stroke="#3D3C45" stroke-width="3" stroke-miterlimit="10" d="M302.15,172.06c0,0,6.12-9.46,22.82-6.68"/>
	<path fill="none" stroke="#3D3C45" stroke-width="3" stroke-miterlimit="10" d="M302.15,181.77c0,0,6.12-9.46,22.82-6.68"/>
	<line fill="none" stroke="#3D3C45" stroke-width="3" stroke-miterlimit="10" x1="308.21" y1="293.25" x2="331.66" y2="293.25"/>
	<line fill="none" stroke="#3D3C45" stroke-width="3" stroke-miterlimit="10" x1="308.21" y1="301.6" x2="331.66" y2="301.6"/>
	<line fill="none" stroke="#3D3C45" stroke-width="3" stroke-miterlimit="10" x1="308.21" y1="309.95" x2="331.66" y2="309.95"/>
	<line fill="none" stroke="#3D3C45" stroke-width="3" stroke-miterlimit="10" x1="308.21" y1="318.3" x2="331.66" y2="318.3"/>
	<line fill="none" stroke="#3D3C45" stroke-width="3" stroke-miterlimit="10" x1="308.21" y1="326.65" x2="331.66" y2="326.65"/>
	<line fill="none" stroke="#3D3C45" stroke-width="3" stroke-miterlimit="10" x1="308.21" y1="335" x2="331.66" y2="335"/>
	<line fill="none" stroke="#3D3C45" stroke-width="3" stroke-miterlimit="10" x1="308.21" y1="343.35" x2="331.66" y2="343.35"/>
	<line fill="none" stroke="#3D3C45" stroke-width="3" stroke-miterlimit="10" x1="308.21" y1="351.7" x2="331.66" y2="351.7"/>
	<line fill="none" stroke="#3D3C45" stroke-width="3" stroke-miterlimit="10" x1="308.21" y1="360.05" x2="331.66" y2="360.05"/>
</g>
</svg>
