<?xml version="1.0" encoding="utf-8"?>
<!-- Generator: Adobe Illustrator 25.4.1, SVG Export Plug-In . SVG Version: 6.00 Build 0)  -->
<svg width="50px" height="50px" version="1.1" id="Layer_1" xmlns="http://www.w3.org/2000/svg" xmlns:xlink="http://www.w3.org/1999/xlink" x="0px" y="0px"
	 viewBox="0 0 256 256" style="enable-background:new 0 0 256 256;" xml:space="preserve">
<style type="text/css">
	.st0{fill:#191919;}
	.st1{fill:#FFFFFF;}
</style>
<path class="st0" d="M131,151.4c-1,1.4-109.5,1-111,0S18.2,90,20,88.6s110.2-1.7,111,0S132,150,131,151.4z"/>
<path class="st0" d="M83.6,160.3h-8c-13.8,0-27.6-0.1-38-0.3c-19.6-0.3-19.7-0.4-22-1.9c-3.8-2.4-4.1-6.3-4.4-11.3
	c-0.4-7.3-0.7-21.2-0.6-34.5c0-6.7,0.2-12.5,0.4-16.7c0.3-7.4,0.6-10.7,3.8-13.3c2.7-2.2,3.5-2.9,58.6-3c19.9,0,54,0.1,59,1.2
	c2.6,0.5,4.7,2.3,5.8,4.6c0.8,1.7,1.3,2.9,1.4,34.8c0.1,32.8-0.4,33.5-2.1,35.9c-2.4,3.5-5.8,3.6-11.2,3.9c-3,0.1-7.3,0.2-12.8,0.3
	C105.6,160.3,95.2,160.3,83.6,160.3L83.6,160.3z M27.2,143.8c19.1,0.5,77,0.8,96.3,0.2c0.3-11.6,0.2-36.5-0.1-48.1
	c-19.2-0.7-77.3-0.7-96.2,0.1C26.6,107.2,26.7,132.3,27.2,143.8L27.2,143.8z"/>
<path class="st0" d="M237.1,151.4c-1.4,1.2-61.6,1.2-62.6,0s-1.2-61.9,0-62.9s62.2-1,62.6,0S238.5,150.2,237.1,151.4z"/>
<path class="st0" d="M205.7,160.3c-11.6,0-24.2-0.2-29.6-0.6c-2.3-0.2-5.4-0.4-7.8-3.2c-2.1-2.5-2.6-3.1-2.7-33.2
	c0-4.6-0.1-28.1,0.6-34.6c0.1-2.6,1.3-5,3.4-6.7c2.5-1.9,3-2.3,35.3-2.3c30.6,0,33.1,0.7,34.1,0.9c2.5,0.6,4.5,2.4,5.4,4.7
	c0.6,1.5,1,2.5,1.3,34.4c0.2,30.5,0.3,34.4-3.4,37.6c-2.5,2.2-3.1,2.8-31.8,2.9H205.7z M182,144c11.5,0.4,36.2,0.4,47.7,0
	c0.3-11.3,0-35.9-0.2-48c-11.7-0.3-36-0.3-47.5,0C181.6,107.6,181.6,132.4,182,144z"/>
<path class="st1" d="M131,151.4c-1,1.4-109.5,1-111,0S18.2,90,20,88.6s110.2-1.7,111,0S132,150,131,151.4z"/>
<path class="st1" d="M237.1,151.4c-1.4,1.2-61.6,1.2-62.6,0s-1.2-61.9,0-62.9s62.2-1,62.6,0S238.5,150.2,237.1,151.4z"/>
<path class="st0" d="M70.9,140.2c-0.4,0.9-42.2,0.6-42.8,0s-0.7-39.6,0-40.6s42.5-1.1,42.8,0S71.3,139.3,70.9,140.2z"/>
<path class="st0" d="M122,140.2c-0.4,0.9-42.2,0.6-42.8,0s-0.7-39.6,0-40.6s42.5-1.1,42.8,0S122.4,139.3,122,140.2z"/>
<path class="st0" d="M227.5,140.2c-1,0.8-42.7,0.8-43.4,0s-0.9-39.9,0-40.6s43.1-0.6,43.4,0S228.5,139.5,227.5,140.2z"/>
<g>
	<path d="M166.9,46.5c-1.3-2.1-28.3-1.5-29.9-0.2s12.7,23.9,15.3,23.9S168.2,48.5,166.9,46.5z"/>
</g>
<g>
	<path d="M166.9,209.8c-1.3,2.1-28.3,1.4-29.9,0.3s12.7-23.9,15.3-23.9S168.2,207.7,166.9,209.8z"/>
</g>
<path d="M157,83.6c-0.1-4.2-9.1-4.8-9.2-0.4c-0.1,2,0,88.1,0,90.9c0,5,8,5.2,8.5,0.6C156.6,171.5,157.1,86.8,157,83.6L157,83.6z"/>
<path class="st0" d="M135.5,177.8c4.2-0.1,4.5-8.5,0.1-8.6c-2-0.1-115.1,0-117.9,0c-5,0-5.2,8-0.6,8.5
	C20.3,178,132.4,177.9,135.5,177.8z"/>
<path class="st0" d="M242.7,177.3c4.2-0.1,4.3-8-0.1-8.1c-2-0.1-70.1,0-72.9,0c-5,0-5.2,8-0.6,8.5
	C172.3,178,239.5,177.4,242.7,177.3L242.7,177.3z"/>
</svg>
